<mxfile host="65bd71144e">
    <diagram id="E7NVCdhXP7EAX8HH6WHC" name="Page-1">
        <mxGraphModel dx="408" dy="428" grid="1" gridSize="10" guides="1" tooltips="1" connect="1" arrows="1" fold="1" page="1" pageScale="1" pageWidth="850" pageHeight="1100" math="0" shadow="0">
            <root>
                <mxCell id="0"/>
                <mxCell id="1" parent="0"/>
                <mxCell id="2" value="Material" style="rounded=1;whiteSpace=wrap;html=1;" parent="1" vertex="1">
                    <mxGeometry x="380" y="180" width="120" height="30" as="geometry"/>
                </mxCell>
                <mxCell id="10" value="" style="edgeStyle=none;html=1;" parent="1" source="3" target="24" edge="1">
                    <mxGeometry relative="1" as="geometry">
                        <mxPoint x="440" y="380" as="targetPoint"/>
                    </mxGeometry>
                </mxCell>
                <mxCell id="3" value="BNCC&lt;sup&gt;1&lt;/sup&gt;" style="rounded=1;whiteSpace=wrap;html=1;" parent="1" vertex="1">
                    <mxGeometry x="410" y="320" width="120" height="30" as="geometry"/>
                </mxCell>
                <UserObject label="[1] https://chatgpt.com/share/672a2d4a-5784-8007-b939-0be1bacf6698" link="https://chatgpt.com/share/672a2d4a-5784-8007-b939-0be1bacf6698" id="4">
                    <mxCell style="text;whiteSpace=wrap;html=1;" parent="1" vertex="1">
                        <mxGeometry x="40" y="730" width="400" height="40" as="geometry"/>
                    </mxCell>
                </UserObject>
                <mxCell id="8" value="Ciências da Natureza" style="rounded=1;whiteSpace=wrap;html=1;" parent="1" vertex="1">
                    <mxGeometry x="540" y="430" width="140" height="30" as="geometry"/>
                </mxCell>
                <mxCell id="12" value="Matemática" style="rounded=1;whiteSpace=wrap;html=1;" parent="1" vertex="1">
                    <mxGeometry x="270" y="430" width="140" height="30" as="geometry"/>
                </mxCell>
                <mxCell id="14" value="Física" style="rounded=1;whiteSpace=wrap;html=1;" parent="1" vertex="1">
                    <mxGeometry x="460" y="590" width="120" height="30" as="geometry"/>
                </mxCell>
                <mxCell id="16" value="Química" style="rounded=1;whiteSpace=wrap;html=1;" parent="1" vertex="1">
                    <mxGeometry x="460" y="640" width="120" height="30" as="geometry"/>
                </mxCell>
                <mxCell id="18" value="Biologia" style="rounded=1;whiteSpace=wrap;html=1;" parent="1" vertex="1">
                    <mxGeometry x="460" y="540" width="120" height="30" as="geometry"/>
                </mxCell>
                <mxCell id="24" value="Áreas" style="rounded=1;whiteSpace=wrap;html=1;" vertex="1" parent="1">
                    <mxGeometry x="410" y="385" width="120" height="30" as="geometry"/>
                </mxCell>
                <mxCell id="26" value="Disciplinas" style="rounded=1;whiteSpace=wrap;html=1;" vertex="1" parent="1">
                    <mxGeometry x="440" y="490" width="140" height="30" as="geometry"/>
                </mxCell>
                <mxCell id="28" value="Temas" style="rounded=1;whiteSpace=wrap;html=1;" vertex="1" parent="1">
                    <mxGeometry x="640" y="490" width="140" height="30" as="geometry"/>
                </mxCell>
                <mxCell id="30" value="Matéria e Energia" style="rounded=1;whiteSpace=wrap;html=1;" vertex="1" parent="1">
                    <mxGeometry x="660" y="540" width="120" height="30" as="geometry"/>
                </mxCell>
                <mxCell id="31" value="Vida e Evolução" style="rounded=1;whiteSpace=wrap;html=1;" vertex="1" parent="1">
                    <mxGeometry x="660" y="590" width="120" height="30" as="geometry"/>
                </mxCell>
                <mxCell id="32" value="Terra e Universo" style="rounded=1;whiteSpace=wrap;html=1;" vertex="1" parent="1">
                    <mxGeometry x="660" y="640" width="120" height="30" as="geometry"/>
                </mxCell>
                <mxCell id="35" value="" style="edgeStyle=segmentEdgeStyle;endArrow=classic;html=1;curved=0;rounded=0;endSize=8;startSize=8;exitX=0;exitY=0.5;exitDx=0;exitDy=0;entryX=0;entryY=0.5;entryDx=0;entryDy=0;" edge="1" parent="1" source="28" target="30">
                    <mxGeometry width="50" height="50" relative="1" as="geometry">
                        <mxPoint x="400" y="540" as="sourcePoint"/>
                        <mxPoint x="450" y="490" as="targetPoint"/>
                        <Array as="points">
                            <mxPoint x="620" y="505"/>
                            <mxPoint x="620" y="555"/>
                        </Array>
                    </mxGeometry>
                </mxCell>
                <mxCell id="37" value="" style="edgeStyle=segmentEdgeStyle;endArrow=classic;html=1;curved=0;rounded=0;endSize=8;startSize=8;" edge="1" parent="1" source="28" target="31">
                    <mxGeometry width="50" height="50" relative="1" as="geometry">
                        <mxPoint x="620" y="540" as="sourcePoint"/>
                        <mxPoint x="650" y="610" as="targetPoint"/>
                        <Array as="points">
                            <mxPoint x="620" y="505"/>
                            <mxPoint x="620" y="600"/>
                        </Array>
                    </mxGeometry>
                </mxCell>
                <mxCell id="38" value="" style="edgeStyle=segmentEdgeStyle;endArrow=classic;html=1;curved=0;rounded=0;endSize=8;startSize=8;" edge="1" parent="1" source="28" target="32">
                    <mxGeometry width="50" height="50" relative="1" as="geometry">
                        <mxPoint x="640" y="515" as="sourcePoint"/>
                        <mxPoint x="680" y="610" as="targetPoint"/>
                        <Array as="points">
                            <mxPoint x="620" y="505"/>
                            <mxPoint x="620" y="655"/>
                        </Array>
                    </mxGeometry>
                </mxCell>
                <mxCell id="40" value="" style="edgeStyle=segmentEdgeStyle;endArrow=classic;html=1;curved=0;rounded=0;endSize=8;startSize=8;" edge="1" parent="1" source="26" target="16">
                    <mxGeometry width="50" height="50" relative="1" as="geometry">
                        <mxPoint x="409.97" y="509.9985714285715" as="sourcePoint"/>
                        <mxPoint x="449.97" y="659.9985714285715" as="targetPoint"/>
                        <Array as="points">
                            <mxPoint x="420" y="505"/>
                            <mxPoint x="420" y="655"/>
                        </Array>
                    </mxGeometry>
                </mxCell>
                <mxCell id="41" value="" style="edgeStyle=segmentEdgeStyle;endArrow=classic;html=1;curved=0;rounded=0;endSize=8;startSize=8;" edge="1" parent="1" source="26" target="14">
                    <mxGeometry width="50" height="50" relative="1" as="geometry">
                        <mxPoint x="435" y="515.0000000000001" as="sourcePoint"/>
                        <mxPoint x="450" y="665" as="targetPoint"/>
                        <Array as="points">
                            <mxPoint x="420" y="505"/>
                            <mxPoint x="420" y="605"/>
                        </Array>
                    </mxGeometry>
                </mxCell>
                <mxCell id="42" value="" style="edgeStyle=segmentEdgeStyle;endArrow=classic;html=1;curved=0;rounded=0;endSize=8;startSize=8;" edge="1" parent="1" source="26" target="18">
                    <mxGeometry width="50" height="50" relative="1" as="geometry">
                        <mxPoint x="425" y="455" as="sourcePoint"/>
                        <mxPoint x="440" y="555" as="targetPoint"/>
                        <Array as="points">
                            <mxPoint x="420" y="505"/>
                            <mxPoint x="420" y="555"/>
                        </Array>
                    </mxGeometry>
                </mxCell>
                <mxCell id="43" value="" style="edgeStyle=segmentEdgeStyle;endArrow=classic;html=1;curved=0;rounded=0;endSize=8;startSize=8;" edge="1" parent="1" source="8" target="28">
                    <mxGeometry width="50" height="50" relative="1" as="geometry">
                        <mxPoint x="650" y="545.0344827586207" as="sourcePoint"/>
                        <mxPoint x="650" y="695.0344827586207" as="targetPoint"/>
                        <Array as="points">
                            <mxPoint x="710" y="445"/>
                        </Array>
                    </mxGeometry>
                </mxCell>
                <mxCell id="44" value="" style="edgeStyle=segmentEdgeStyle;endArrow=classic;html=1;curved=0;rounded=0;endSize=8;startSize=8;" edge="1" parent="1" source="8" target="26">
                    <mxGeometry width="50" height="50" relative="1" as="geometry">
                        <mxPoint x="659.9999999999998" y="455.0344827586207" as="sourcePoint"/>
                        <mxPoint x="720" y="530" as="targetPoint"/>
                        <Array as="points">
                            <mxPoint x="510" y="445"/>
                        </Array>
                    </mxGeometry>
                </mxCell>
                <mxCell id="46" value="" style="edgeStyle=segmentEdgeStyle;endArrow=classic;html=1;curved=0;rounded=0;endSize=8;startSize=8;" edge="1" parent="1" source="24" target="12">
                    <mxGeometry width="50" height="50" relative="1" as="geometry">
                        <mxPoint x="530" y="455.02857142857135" as="sourcePoint"/>
                        <mxPoint x="490.02857142857147" y="530" as="targetPoint"/>
                        <Array as="points"/>
                    </mxGeometry>
                </mxCell>
                <mxCell id="47" value="" style="edgeStyle=segmentEdgeStyle;endArrow=classic;html=1;curved=0;rounded=0;endSize=8;startSize=8;" edge="1" parent="1" source="24" target="8">
                    <mxGeometry width="50" height="50" relative="1" as="geometry">
                        <mxPoint x="390" y="410" as="sourcePoint"/>
                        <mxPoint x="350.02857142857135" y="440" as="targetPoint"/>
                        <Array as="points"/>
                    </mxGeometry>
                </mxCell>
                <mxCell id="48" value="LLM" style="rounded=1;whiteSpace=wrap;html=1;" vertex="1" parent="1">
                    <mxGeometry x="425" y="30" width="120" height="30" as="geometry"/>
                </mxCell>
                <mxCell id="49" value="Contexto" style="rounded=1;whiteSpace=wrap;html=1;" vertex="1" parent="1">
                    <mxGeometry x="400" y="110" width="120" height="30" as="geometry"/>
                </mxCell>
                <mxCell id="50" value="" style="edgeStyle=segmentEdgeStyle;endArrow=classic;html=1;curved=0;rounded=0;endSize=8;startSize=8;" edge="1" parent="1" source="48" target="49">
                    <mxGeometry width="50" height="50" relative="1" as="geometry">
                        <mxPoint x="540" y="410" as="sourcePoint"/>
                        <mxPoint x="620.0000000000002" y="440" as="targetPoint"/>
                        <Array as="points"/>
                    </mxGeometry>
                </mxCell>
                <mxCell id="51" value="" style="edgeStyle=segmentEdgeStyle;endArrow=classic;html=1;curved=0;rounded=0;endSize=8;startSize=8;" edge="1" parent="1" source="49" target="2">
                    <mxGeometry width="50" height="50" relative="1" as="geometry">
                        <mxPoint x="495" y="70" as="sourcePoint"/>
                        <mxPoint x="495" y="120" as="targetPoint"/>
                        <Array as="points"/>
                    </mxGeometry>
                </mxCell>
                <mxCell id="52" value="Prompts" style="rounded=1;whiteSpace=wrap;html=1;" vertex="1" parent="1">
                    <mxGeometry x="570" y="90" width="120" height="30" as="geometry"/>
                </mxCell>
                <mxCell id="53" value="Autogeração" style="rounded=1;whiteSpace=wrap;html=1;" vertex="1" parent="1">
                    <mxGeometry x="580" y="130" width="120" height="30" as="geometry"/>
                </mxCell>
                <mxCell id="54" value="Plano de Aula" style="rounded=1;whiteSpace=wrap;html=1;" vertex="1" parent="1">
                    <mxGeometry x="1130" y="200" width="120" height="30" as="geometry"/>
                </mxCell>
                <mxCell id="55" value="OpenAI : Vision" style="rounded=1;whiteSpace=wrap;html=1;" vertex="1" parent="1">
                    <mxGeometry x="580" y="170" width="120" height="30" as="geometry"/>
                </mxCell>
                <object label="Plano de Ensino" Comments="Ou &quot;Programa da Disciplina&quot;." id="56">
                    <mxCell style="rounded=1;whiteSpace=wrap;html=1;" vertex="1" parent="1">
                        <mxGeometry x="980" y="140" width="120" height="30" as="geometry"/>
                    </mxCell>
                </object>
                <mxCell id="57" value="Material Didático" style="rounded=1;whiteSpace=wrap;html=1;" vertex="1" parent="1">
                    <mxGeometry x="1155" y="130" width="120" height="30" as="geometry"/>
                </mxCell>
                <mxCell id="59" value="Objetivos" style="rounded=1;whiteSpace=wrap;html=1;" vertex="1" parent="1">
                    <mxGeometry x="960" y="270" width="120" height="30" as="geometry"/>
                </mxCell>
                <mxCell id="60" value="Justificativa" style="rounded=1;whiteSpace=wrap;html=1;fontStyle=1" vertex="1" parent="1">
                    <mxGeometry x="960" y="310" width="120" height="30" as="geometry"/>
                </mxCell>
                <mxCell id="61" value="Objetos do Conhecimento" style="rounded=1;whiteSpace=wrap;html=1;fontStyle=1" vertex="1" parent="1">
                    <mxGeometry x="960" y="350" width="120" height="30" as="geometry"/>
                </mxCell>
                <mxCell id="62" value="Objetivos da Aprendizagem" style="rounded=1;whiteSpace=wrap;html=1;fontStyle=1" vertex="1" parent="1">
                    <mxGeometry x="960" y="390" width="120" height="30" as="geometry"/>
                </mxCell>
                <mxCell id="63" value="Recursos Didáticos" style="rounded=1;whiteSpace=wrap;html=1;fontStyle=1" vertex="1" parent="1">
                    <mxGeometry x="960" y="430" width="120" height="30" as="geometry"/>
                </mxCell>
                <mxCell id="64" value="Referências" style="rounded=1;whiteSpace=wrap;html=1;fontStyle=1" vertex="1" parent="1">
                    <mxGeometry x="960" y="550" width="120" height="30" as="geometry"/>
                </mxCell>
                <mxCell id="65" value="Avaliação" style="rounded=1;whiteSpace=wrap;html=1;fontStyle=1" vertex="1" parent="1">
                    <mxGeometry x="960" y="470" width="120" height="30" as="geometry"/>
                </mxCell>
                <mxCell id="66" value="Produto Final" style="rounded=1;whiteSpace=wrap;html=1;fontStyle=1" vertex="1" parent="1">
                    <mxGeometry x="960" y="510" width="120" height="30" as="geometry"/>
                </mxCell>
                <mxCell id="68" value="" style="edgeStyle=segmentEdgeStyle;endArrow=classic;html=1;curved=0;rounded=0;endSize=8;startSize=8;" edge="1" parent="1" source="56" target="59">
                    <mxGeometry width="50" height="50" relative="1" as="geometry">
                        <mxPoint x="949.96" y="210" as="sourcePoint"/>
                        <mxPoint x="969.96" y="260" as="targetPoint"/>
                        <Array as="points">
                            <mxPoint x="930" y="155"/>
                            <mxPoint x="930" y="280"/>
                        </Array>
                    </mxGeometry>
                </mxCell>
                <mxCell id="69" value="" style="edgeStyle=segmentEdgeStyle;endArrow=classic;html=1;curved=0;rounded=0;endSize=8;startSize=8;" edge="1" parent="1" source="56" target="60">
                    <mxGeometry width="50" height="50" relative="1" as="geometry">
                        <mxPoint x="950.0000000000002" y="260" as="sourcePoint"/>
                        <mxPoint x="980.0000000000002" y="300.0000000000001" as="targetPoint"/>
                        <Array as="points">
                            <mxPoint x="930" y="155"/>
                            <mxPoint x="930" y="295"/>
                            <mxPoint x="1020" y="295"/>
                        </Array>
                    </mxGeometry>
                </mxCell>
                <mxCell id="70" value="" style="edgeStyle=segmentEdgeStyle;endArrow=classic;html=1;curved=0;rounded=0;endSize=8;startSize=8;" edge="1" parent="1" source="56" target="61">
                    <mxGeometry width="50" height="50" relative="1" as="geometry">
                        <mxPoint x="950.0000000000002" y="300.0000000000001" as="sourcePoint"/>
                        <mxPoint x="980.0000000000002" y="340.0000000000001" as="targetPoint"/>
                        <Array as="points">
                            <mxPoint x="930" y="155"/>
                            <mxPoint x="930" y="340"/>
                            <mxPoint x="1020" y="340"/>
                        </Array>
                    </mxGeometry>
                </mxCell>
                <mxCell id="71" value="" style="edgeStyle=segmentEdgeStyle;endArrow=classic;html=1;curved=0;rounded=0;endSize=8;startSize=8;" edge="1" parent="1" source="56" target="63">
                    <mxGeometry width="50" height="50" relative="1" as="geometry">
                        <mxPoint x="950.0000000000002" y="375.0000000000001" as="sourcePoint"/>
                        <mxPoint x="980.0000000000002" y="415.0000000000001" as="targetPoint"/>
                        <Array as="points">
                            <mxPoint x="930" y="155"/>
                            <mxPoint x="930" y="415"/>
                            <mxPoint x="1020" y="415"/>
                        </Array>
                    </mxGeometry>
                </mxCell>
                <mxCell id="72" value="" style="edgeStyle=segmentEdgeStyle;endArrow=classic;html=1;curved=0;rounded=0;endSize=8;startSize=8;" edge="1" parent="1" source="56" target="62">
                    <mxGeometry width="50" height="50" relative="1" as="geometry">
                        <mxPoint x="950.0000000000002" y="335.0000000000001" as="sourcePoint"/>
                        <mxPoint x="980.0000000000002" y="375.0000000000001" as="targetPoint"/>
                        <Array as="points">
                            <mxPoint x="930" y="155"/>
                            <mxPoint x="930" y="375"/>
                            <mxPoint x="1020" y="375"/>
                        </Array>
                    </mxGeometry>
                </mxCell>
                <mxCell id="73" value="" style="edgeStyle=segmentEdgeStyle;endArrow=classic;html=1;curved=0;rounded=0;endSize=8;startSize=8;" edge="1" parent="1" source="56" target="66">
                    <mxGeometry width="50" height="50" relative="1" as="geometry">
                        <mxPoint x="950.0000000000002" y="455.0000000000001" as="sourcePoint"/>
                        <mxPoint x="980.0000000000002" y="495.0000000000001" as="targetPoint"/>
                        <Array as="points">
                            <mxPoint x="930" y="155"/>
                            <mxPoint x="930" y="495"/>
                            <mxPoint x="1020" y="495"/>
                        </Array>
                    </mxGeometry>
                </mxCell>
                <mxCell id="74" value="" style="edgeStyle=segmentEdgeStyle;endArrow=classic;html=1;curved=0;rounded=0;endSize=8;startSize=8;" edge="1" parent="1" source="56" target="65">
                    <mxGeometry width="50" height="50" relative="1" as="geometry">
                        <mxPoint x="950.0000000000002" y="415.0000000000001" as="sourcePoint"/>
                        <mxPoint x="980.0000000000002" y="455.0000000000001" as="targetPoint"/>
                        <Array as="points">
                            <mxPoint x="930" y="155"/>
                            <mxPoint x="930" y="455"/>
                            <mxPoint x="1020" y="455"/>
                        </Array>
                    </mxGeometry>
                </mxCell>
                <mxCell id="76" value="" style="edgeStyle=segmentEdgeStyle;endArrow=classic;html=1;curved=0;rounded=0;endSize=8;startSize=8;" edge="1" parent="1" source="56" target="64">
                    <mxGeometry width="50" height="50" relative="1" as="geometry">
                        <mxPoint x="950.0000000000002" y="490.0000000000001" as="sourcePoint"/>
                        <mxPoint x="980.0000000000002" y="530.0000000000001" as="targetPoint"/>
                        <Array as="points">
                            <mxPoint x="930" y="155"/>
                            <mxPoint x="930" y="530"/>
                            <mxPoint x="1020" y="530"/>
                        </Array>
                    </mxGeometry>
                </mxCell>
                <mxCell id="77" value="Identificação da Disciplina" style="rounded=1;whiteSpace=wrap;html=1;" vertex="1" parent="1">
                    <mxGeometry x="960" y="230" width="120" height="30" as="geometry"/>
                </mxCell>
                <mxCell id="78" value="" style="edgeStyle=segmentEdgeStyle;endArrow=classic;html=1;curved=0;rounded=0;endSize=8;startSize=8;" edge="1" parent="1" source="56" target="77">
                    <mxGeometry width="50" height="50" relative="1" as="geometry">
                        <mxPoint x="970" y="225" as="sourcePoint"/>
                        <mxPoint x="1030" y="280" as="targetPoint"/>
                        <Array as="points">
                            <mxPoint x="930" y="155"/>
                            <mxPoint x="930" y="250"/>
                        </Array>
                    </mxGeometry>
                </mxCell>
            </root>
        </mxGraphModel>
    </diagram>
</mxfile>